<svg width="102" height="36" viewBox="0 0 102 36" fill="none" xmlns="http://www.w3.org/2000/svg">
<path d="M75.5 33.8H72.29V33.02L75.3 28H76.42V33.04H77.21V33.8H76.42V35H75.5V33.8ZM75.5 33.04V29.07L73.13 33.04H75.5ZM78.758 35.1C78.5714 35.1 78.4214 35.04 78.308 34.92C78.1947 34.7933 78.138 34.6333 78.138 34.44C78.138 34.2467 78.1947 34.09 78.308 33.97C78.4214 33.85 78.5714 33.79 78.758 33.79C78.9447 33.79 79.0947 33.85 79.208 33.97C79.3214 34.09 79.378 34.2467 79.378 34.44C79.378 34.6333 79.3214 34.7933 79.208 34.92C79.0947 35.04 78.9447 35.1 78.758 35.1ZM82.7676 35.1C82.0342 35.1 81.4576 34.9233 81.0376 34.57C80.6242 34.21 80.4176 33.7167 80.4176 33.09C80.4176 32.6767 80.5176 32.31 80.7176 31.99C80.9176 31.67 81.2042 31.43 81.5776 31.27C81.2976 31.15 81.0742 30.9467 80.9076 30.66C80.7409 30.3667 80.6576 30.0467 80.6576 29.7C80.6576 29.1533 80.8476 28.7167 81.2276 28.39C81.6142 28.0633 82.1276 27.9 82.7676 27.9C83.4076 27.9 83.9176 28.0633 84.2976 28.39C84.6842 28.7167 84.8776 29.1533 84.8776 29.7C84.8776 30.0467 84.7942 30.3667 84.6276 30.66C84.4609 30.9467 84.2376 31.15 83.9576 31.27C84.3309 31.43 84.6176 31.67 84.8176 31.99C85.0176 32.31 85.1176 32.6767 85.1176 33.09C85.1176 33.7167 84.9076 34.21 84.4876 34.57C84.0742 34.9233 83.5009 35.1 82.7676 35.1ZM82.7676 30.93C83.1342 30.93 83.4242 30.8267 83.6376 30.62C83.8509 30.4133 83.9576 30.1367 83.9576 29.79C83.9576 29.45 83.8509 29.1767 83.6376 28.97C83.4242 28.7633 83.1342 28.66 82.7676 28.66C82.4009 28.66 82.1109 28.7633 81.8976 28.97C81.6842 29.1767 81.5776 29.45 81.5776 29.79C81.5776 30.1367 81.6842 30.4133 81.8976 30.62C82.1109 30.8267 82.4009 30.93 82.7676 30.93ZM82.7676 34.34C83.2142 34.34 83.5642 34.22 83.8176 33.98C84.0709 33.7333 84.1976 33.3967 84.1976 32.97C84.1976 32.5433 84.0709 32.2133 83.8176 31.98C83.5642 31.74 83.2142 31.62 82.7676 31.62C82.3209 31.62 81.9709 31.74 81.7176 31.98C81.4642 32.2133 81.3376 32.5433 81.3376 32.97C81.3376 33.3967 81.4642 33.7333 81.7176 33.98C81.9709 34.22 82.3209 34.34 82.7676 34.34ZM86.1556 34.21C86.6356 33.8633 87.1123 33.45 87.5856 32.97C88.0656 32.4833 88.4723 31.9667 88.8056 31.42C89.139 30.8733 89.3056 30.3567 89.3056 29.87C89.3056 29.4967 89.199 29.2033 88.9856 28.99C88.7723 28.77 88.4823 28.66 88.1156 28.66C87.7823 28.66 87.4656 28.74 87.1656 28.9C86.8723 29.06 86.639 29.2733 86.4656 29.54L85.9756 28.99C86.1823 28.65 86.4756 28.3833 86.8556 28.19C87.2423 27.9967 87.6656 27.9 88.1256 27.9C88.779 27.9 89.2956 28.0767 89.6756 28.43C90.0556 28.7767 90.2456 29.2467 90.2456 29.84C90.2456 30.5467 89.9656 31.2833 89.4056 32.05C88.8523 32.8167 88.1723 33.5567 87.3656 34.27H90.5556V35H86.1556V34.21ZM93.0637 31.87C92.5837 31.87 92.2003 31.69 91.9137 31.33C91.627 30.9633 91.4837 30.4833 91.4837 29.89C91.4837 29.29 91.627 28.81 91.9137 28.45C92.2003 28.0833 92.5837 27.9 93.0637 27.9C93.537 27.9 93.917 28.0833 94.2037 28.45C94.497 28.81 94.6437 29.29 94.6437 29.89C94.6437 30.4833 94.497 30.9633 94.2037 31.33C93.917 31.69 93.537 31.87 93.0637 31.87ZM97.1837 28H98.1137L93.8237 35.13H92.9037L97.1837 28ZM93.0637 31.22C93.3103 31.22 93.507 31.1 93.6537 30.86C93.8003 30.6133 93.8737 30.29 93.8737 29.89C93.8737 29.49 93.8003 29.17 93.6537 28.93C93.507 28.6833 93.3103 28.56 93.0637 28.56C92.8103 28.56 92.6103 28.6833 92.4637 28.93C92.317 29.17 92.2437 29.49 92.2437 29.89C92.2437 30.29 92.317 30.6133 92.4637 30.86C92.6103 31.1 92.8103 31.22 93.0637 31.22ZM97.9937 35.1C97.5137 35.1 97.1303 34.92 96.8437 34.56C96.557 34.1933 96.4137 33.71 96.4137 33.11C96.4137 32.5167 96.557 32.04 96.8437 31.68C97.1303 31.3133 97.5137 31.13 97.9937 31.13C98.467 31.13 98.847 31.3133 99.1337 31.68C99.427 32.04 99.5737 32.5167 99.5737 33.11C99.5737 33.71 99.427 34.1933 99.1337 34.56C98.847 34.92 98.467 35.1 97.9937 35.1ZM97.9937 34.44C98.2403 34.44 98.437 34.32 98.5837 34.08C98.7303 33.8333 98.8037 33.51 98.8037 33.11C98.8037 32.71 98.7303 32.39 98.5837 32.15C98.437 31.9033 98.2403 31.78 97.9937 31.78C97.7403 31.78 97.5403 31.9033 97.3937 32.15C97.247 32.39 97.1737 32.71 97.1737 33.11C97.1737 33.51 97.247 33.8333 97.3937 34.08C97.5403 34.32 97.7403 34.44 97.9937 34.44Z" fill="#21B692"/>
<path d="M70 33L67 30L64 33H70Z" fill="#21B692"/>
<path d="M1 19.9828L2.45429 13.9986C2.58827 13.4473 3.22413 13.1906 3.70326 13.4945V13.4945C4.13045 13.7654 4.69856 13.5936 4.90414 13.1314L5.44892 11.9066C5.79078 11.138 6.87108 11.1092 7.25338 11.8586L7.52758 12.396C7.8162 12.9617 8.55218 13.1186 9.04639 12.7197L9.2027 12.5936C9.58853 12.2822 10.1443 12.3005 10.5087 12.6367L11.5441 13.5917C11.6216 13.6632 11.6873 13.7464 11.7388 13.8384L12.8289 15.7866C13.1446 16.3507 13.9099 16.4665 14.3851 16.0282V16.0282C14.8314 15.6166 15.5435 15.6898 15.8897 16.1886L16.4354 16.9752C16.7555 17.4365 17.3947 17.54 17.844 17.2033V17.2033C18.3435 16.829 19.0603 17.0039 19.3312 17.5661L19.96 18.8711C20.2378 19.4475 21.0398 19.4965 21.3856 18.9582V18.9582C21.769 18.3614 22.6783 18.5018 22.8639 19.1864L23.4942 21.5119C23.7322 22.39 24.9266 22.5141 25.3401 21.7037V21.7037C25.6452 21.1058 26.4428 20.9756 26.9222 21.4454L26.9645 21.4869C27.3829 21.8969 28.0624 21.8611 28.4355 21.4095L29.4138 20.2251C29.4899 20.133 29.5819 20.0553 29.6854 19.9956L30.6012 19.4677C31.016 19.2285 31.5423 19.3171 31.856 19.6788L32.4482 20.3616C32.8097 20.7783 33.4404 20.8236 33.8577 20.4628L34.7937 19.6534C34.8571 19.5986 34.9134 19.536 34.9612 19.4671L36.0847 17.8479C36.4077 17.3824 37.0526 17.2779 37.506 17.6177L37.6175 17.7013C38.0766 18.0454 38.7306 17.9334 39.049 17.4561L39.5216 16.7477C39.888 16.1986 40.6764 16.1488 41.1089 16.6475L42.0363 17.7167L43.4825 19.134C43.6979 19.3451 43.9972 19.4477 44.2969 19.4132L45.2693 19.3011C45.4901 19.2756 45.696 19.1774 45.8547 19.0219L47.3967 17.5107L48.9336 16.2704C49.0961 16.1392 49.2956 16.0622 49.504 16.0502L50.5653 15.989C50.825 15.974 51.0803 16.0608 51.277 16.2309L51.8999 16.7696C52.355 17.1631 53.052 17.0686 53.3859 16.5682L54.1378 15.4411C54.3796 15.0787 54.8281 14.9146 55.2466 15.0352L55.9603 15.2409C56.1986 15.3096 56.4029 15.4644 56.5335 15.6752L57.32 16.9448C57.6932 17.5472 58.5643 17.5618 58.9575 16.9724V16.9724C59.3758 16.3454 60.3173 16.4111 60.6445 17.0901L61.5102 18.8869C61.6259 19.1269 61.8325 19.3108 62.0842 19.3979L62.349 19.4894C62.9374 19.693 63.5667 19.3151 63.6637 18.7002L64.7947 11.5283C64.9446 10.5774 66.2197 10.3667 66.6676 11.2188L67.0512 11.9485L67.7465 13.8323C68.0844 14.7478 69.3992 14.6868 69.6508 13.7439L70.5299 10.4497C70.5912 10.2204 70.732 10.0203 70.9272 9.8852L71.3512 9.59187C71.8855 9.22226 72.625 9.46133 72.8418 10.0738V10.0738C73.1869 11.0485 74.6085 10.9026 74.7484 9.87813L75.6471 3.29894C75.7692 2.40482 76.9197 2.1171 77.4483 2.84848L77.6916 3.18511C77.7449 3.25879 77.7878 3.33937 77.8193 3.42465L78.7678 5.99453C79.0696 6.81238 80.2005 6.87929 80.5967 6.10274L81.3454 4.63519L82.9454 2.23711C83.0666 2.05543 83.244 1.91843 83.4504 1.84704L84.0777 1.63006C84.5573 1.46416 85.0851 1.68384 85.3054 2.14104L86.1781 3.952C86.4514 4.51928 87.1747 4.69577 87.6786 4.31813L87.7117 4.29332C88.146 3.96784 88.7607 4.04819 89.0967 4.47437L89.1924 4.59575C89.6722 5.2043 90.632 5.05936 90.9107 4.33627L91.6198 2.49692C91.8437 1.91593 92.5608 1.70982 93.0591 2.08324V2.08324C93.4903 2.40637 94.1044 2.30118 94.4034 1.85296L94.4975 1.71187C94.9607 1.01768 96.0202 1.1627 96.2798 1.95581L96.6069 2.95518C96.8931 3.82962 98.1086 3.88611 98.4747 3.04199L98.7094 2.50083C98.9664 1.90814 99.7096 1.71105 100.227 2.09847L101 2.67811" stroke="#21B692" stroke-miterlimit="10" stroke-linecap="round"/>
</svg>
