<svg width="80" height="30" viewBox="0 0 80 30" fill="none" xmlns="http://www.w3.org/2000/svg">
<path d="M24.6 15.4914V19.2125C24.6 19.936 24.3921 20.6251 23.9764 21.2281C23.578 21.8138 23.0236 22.2445 22.3827 22.5201C21.9496 22.6924 21.4819 22.7957 21.0142 22.7957H17.3592C15.3844 22.7957 13.7734 21.1936 13.7734 19.2297V7.94586C13.7734 7.37736 13.3057 6.92945 12.7514 6.92945C12.1797 6.92945 11.7293 7.39459 11.7293 7.94586C11.7293 7.94586 11.7293 13.7342 11.7293 13.8203C11.7293 14.0615 11.5388 14.251 11.2963 14.251C11.227 14.251 9.13094 14.251 9.13094 14.251L11.5734 16.2322C11.7986 16.4217 11.9199 16.6801 11.9199 16.9729V19.2814C11.9199 21.9171 14.0852 24.0706 16.7355 24.0706H17.7229C18.2599 24.0706 18.693 24.5012 18.693 25.0353C18.693 25.5693 18.2599 26 17.7229 26H16.7355C15.8348 26 14.9513 25.8277 14.1198 25.466C13.323 25.1214 12.5955 24.639 11.9718 24.0361C11.3482 23.4159 10.8632 22.7096 10.5341 21.8999C10.1876 21.073 9.99707 20.1944 9.99707 19.2986V17.4381L5.805 14.0271C4.52313 13.0451 5.02549 12.3216 5.57981 12.3216C5.71839 12.3216 9.7892 12.3216 9.7892 12.3216V7.94586C9.7892 6.3265 11.123 5 12.7514 5C14.3797 5 15.7135 6.3265 15.7135 7.94586V19.2125C15.7135 20.1255 16.4584 20.8663 17.3765 20.8663H21.0315C21.2567 20.8663 21.4646 20.8318 21.6552 20.7457C22.2788 20.4873 22.6772 19.8843 22.6772 19.2125V15.4914C22.6772 14.5783 21.9323 13.8376 21.0142 13.8376H18.1733C17.6363 13.8376 17.2033 13.4069 17.2033 12.8728V8.80722C17.2033 8.27317 17.6363 7.84249 18.1733 7.84249C18.7103 7.84249 19.1434 8.27317 19.1434 8.80722V11.9081H21.0315C22.989 11.9253 24.6 13.5275 24.6 15.4914Z" fill="#21B692"/>
<path d="M70.4627 22.1246L68.0233 18.3547L65.6444 22.1246H60.2214L65.3219 15.0081L60.4028 8.0126H65.7452L68.1443 11.5608L70.4828 8.0126H75.6035L70.7046 14.8267L75.9059 22.1246H70.4627Z" fill="#515564"/>
<path d="M45.3881 8.0126H52.3433C53.9157 8.0126 55.3001 8.30156 56.4962 8.87948C57.7058 9.44396 58.6399 10.2571 59.2985 11.3188C59.9705 12.3806 60.3065 13.6305 60.3065 15.0686C60.3065 16.5067 59.9705 17.7566 59.2985 18.8184C58.6399 19.8801 57.7058 20.7 56.4962 21.2779C55.3001 21.8424 53.9157 22.1246 52.3433 22.1246H45.3881V8.0126ZM52.1417 18.4152C53.1631 18.4152 53.9762 18.1262 54.581 17.5483C55.1993 16.9569 55.5084 16.1304 55.5084 15.0686C55.5084 14.0068 55.1993 13.187 54.581 12.6091C53.9762 12.0177 53.1631 11.722 52.1417 11.722H50.1458V18.4152H52.1417Z" fill="#515564"/>
<path d="M38.7622 19.6651H33.3996L32.4521 22.1246H27.6137L33.7827 8.0126H38.4598L44.6287 22.1246H39.7097L38.7622 19.6651ZM37.4518 16.2379L36.0809 12.6897L34.71 16.2379H37.4518Z" fill="#515564"/>
</svg>
