<svg width="216" height="216" viewBox="0 0 216 216" fill="none" xmlns="http://www.w3.org/2000/svg">
<rect x="0.5" y="0.5" width="215" height="215" rx="9.5" fill="white" stroke="#21B692"/>
<path d="M184 79.507C168.235 79.507 152.47 79.507 136.593 79.507C136.593 63.6713 136.593 47.9472 136.593 32C152.395 32 168.198 32 184 32C184 47.8728 184 63.7085 184 79.507ZM174.407 69.9535C174.407 60.4373 174.407 50.9954 174.407 41.6278C164.888 41.6278 155.481 41.6278 146.112 41.6278C146.112 51.1069 146.112 60.5116 146.112 69.9535C155.556 69.9535 164.926 69.9535 174.407 69.9535ZM32 184C32 168.239 32 152.477 32 136.605C47.8395 136.605 63.5675 136.605 79.4814 136.605C79.4814 152.403 79.4814 168.202 79.4814 184C63.6791 184 47.8395 184 32 184ZM41.593 146.084C41.593 155.6 41.593 165.005 41.593 174.409C51.1116 174.409 60.5186 174.409 69.9256 174.409C69.9256 164.93 69.9256 155.526 69.9256 146.084C60.4814 146.084 51.0744 146.084 41.593 146.084ZM117.519 184C117.519 180.84 117.519 177.718 117.519 174.409C123.988 174.409 130.235 174.409 136.444 174.409C136.444 171.213 136.444 168.164 136.444 164.967C130.123 164.967 123.877 164.967 117.444 164.967C117.444 155.414 117.444 145.972 117.444 136.605C107.888 136.605 98.5186 136.605 89.1116 136.605C89.1116 139.764 89.1116 142.85 89.1116 146.084C95.4697 146.084 101.716 146.084 107.926 146.084C107.926 155.637 107.926 165.005 107.926 174.521C101.605 174.521 95.3581 174.521 89 174.521C89 177.792 89 180.877 89 184C98.5186 184 108 184 117.519 184ZM184 89.0232C177.679 89.0232 171.395 89.0232 164.926 89.0232C164.926 92.2945 164.926 95.3798 164.926 98.428C161.728 98.428 158.679 98.428 155.481 98.428C155.481 95.2683 155.481 92.1829 155.481 89.1348C152.247 89.1348 149.16 89.1348 145.963 89.1348C145.963 92.2945 145.963 95.3426 145.963 98.5395C142.765 98.5395 139.679 98.5395 136.63 98.5395C136.63 101.774 136.63 104.859 136.63 107.907C149.272 107.907 161.84 107.907 174.519 107.907C174.519 104.747 174.519 101.662 174.519 98.5023C177.791 98.5023 180.877 98.5023 184 98.5023C184 95.3426 184 92.1829 184 89.0232ZM155.519 184C155.519 177.681 155.519 171.398 155.519 164.93C161.988 164.93 168.235 164.93 174.444 164.93C174.444 161.733 174.444 158.685 174.444 155.6C164.963 155.6 155.519 155.6 146.037 155.6C146.037 165.116 146.037 174.558 146.037 184C149.16 184 152.321 184 155.519 184ZM184 117.498C177.716 117.498 171.395 117.498 165.112 117.498C165.112 120.769 165.112 123.854 165.112 127.014C171.47 127.014 177.753 127.014 184 127.014C184 123.854 184 120.695 184 117.498ZM184 184C184 180.84 184 177.681 184 174.484C177.716 174.484 171.395 174.484 165 174.484C165 177.792 165 180.877 165 184C171.321 184 177.679 184 184 184ZM184 136.493C180.877 136.493 177.716 136.493 174.593 136.493C174.593 139.764 174.593 142.85 174.593 146.009C177.791 146.009 180.877 146.009 184 146.009C184 142.85 184 139.69 184 136.493ZM32.1116 32.1115C47.9511 32.1115 63.6419 32.1115 79.4442 32.1115C79.4442 47.8728 79.4442 63.597 79.4442 79.4326C63.7163 79.4326 47.9883 79.4326 32.1116 79.4326C32.1116 63.7085 32.1116 47.9472 32.1116 32.1115ZM69.9256 41.6278C60.4442 41.6278 51.0372 41.6278 41.593 41.6278C41.593 51.1069 41.593 60.5488 41.593 69.9164C51.1116 69.9164 60.5186 69.9164 69.9256 69.9164C69.9256 60.4373 69.9256 51.0697 69.9256 41.6278ZM107.888 126.94C107.888 123.78 107.888 120.695 107.888 117.498C104.728 117.498 101.679 117.498 98.4814 117.498C98.4814 114.301 98.4814 111.215 98.4814 107.981C92.0861 107.981 85.8024 107.981 79.4442 107.981C79.4442 101.588 79.4442 95.3798 79.4442 89.1348C76.2466 89.1348 73.1605 89.1348 69.9256 89.1348C69.9256 95.4913 69.9256 101.736 69.9256 108.093C66.728 108.093 63.6791 108.093 60.593 108.093C60.593 114.45 60.593 120.695 60.593 126.902C63.7906 126.902 66.8767 126.902 70.0372 126.902C70.0372 123.743 70.0372 120.695 70.0372 117.646C76.3953 117.646 82.6419 117.646 89 117.646C89 120.806 89 123.854 89 126.94C95.3953 126.94 101.642 126.94 107.888 126.94ZM108.074 60.586C108.074 63.82 108.074 66.9054 108.074 69.9535C111.272 69.9535 114.321 69.9535 117.519 69.9535C117.519 66.7938 117.519 63.7085 117.519 60.4744C120.753 60.4744 123.84 60.4744 126.888 60.4744C126.888 57.2776 126.888 54.2294 126.888 51.0325C117.407 51.0325 108 51.0325 98.4071 51.0325C98.4071 47.7985 98.4071 44.7131 98.4071 41.6278C95.2094 41.6278 92.1605 41.6278 89.0372 41.6278C89.0372 47.91 89.0372 54.1179 89.0372 60.586C95.4325 60.586 101.679 60.586 108.074 60.586ZM89.0744 89.0604C89.0744 92.2573 89.0744 95.3055 89.0744 98.428C101.716 98.428 114.321 98.428 126.888 98.428C126.888 92.1086 126.888 85.8264 126.888 79.5813C123.728 79.5813 120.679 79.5813 117.519 79.5813C117.519 82.7039 117.519 85.752 117.519 89.0604C107.888 89.0604 98.4814 89.0604 89.0744 89.0604ZM32.1116 126.94C35.272 126.94 38.3209 126.94 41.5186 126.94C41.5186 123.78 41.5186 120.695 41.5186 117.461C44.7534 117.461 47.8395 117.461 50.8885 117.461C50.8885 114.226 50.8885 111.141 50.8885 107.944C47.728 107.944 44.6791 107.944 41.4814 107.944C41.4814 101.588 41.4814 95.3426 41.4814 89.0604C38.2838 89.0604 35.2348 89.0604 32.1116 89.0604C32.1116 101.811 32.1116 114.375 32.1116 126.94ZM155.407 145.935C155.407 136.419 155.407 127.014 155.407 117.609C149.086 117.609 142.877 117.609 136.593 117.609C136.593 120.769 136.593 123.854 136.593 127.088C139.753 127.088 142.84 127.088 146.037 127.088C146.037 133.445 146.037 139.69 146.037 145.935C149.235 145.935 152.321 145.935 155.407 145.935ZM126.888 41.4419C126.888 38.2451 126.888 35.1597 126.888 32.1115C120.568 32.1115 114.358 32.1115 108.074 32.1115C108.074 35.234 108.074 38.2822 108.074 41.4419C114.433 41.4419 120.679 41.4419 126.888 41.4419ZM126.888 108.13C123.691 108.13 120.605 108.13 117.556 108.13C117.556 114.45 117.556 120.657 117.556 126.94C120.679 126.94 123.728 126.94 126.888 126.94C126.888 120.583 126.888 114.338 126.888 108.13ZM136.407 136.642C133.209 136.642 130.123 136.642 127.074 136.642C127.074 142.961 127.074 149.169 127.074 155.451C130.198 155.451 133.247 155.451 136.407 155.451C136.407 149.057 136.407 142.85 136.407 136.642ZM89.1116 70.1394C89.1116 73.3363 89.1116 76.4216 89.1116 79.4698C92.272 79.4698 95.3209 79.4698 98.4442 79.4698C98.4442 76.3473 98.4442 73.2991 98.4442 70.1394C95.2466 70.1394 92.1605 70.1394 89.1116 70.1394ZM60.4071 89.1348C57.2094 89.1348 54.1233 89.1348 51.0744 89.1348C51.0744 92.2945 51.0744 95.3426 51.0744 98.4652C54.1976 98.4652 57.2466 98.4652 60.4071 98.4652C60.4071 95.2683 60.4071 92.1829 60.4071 89.1348ZM98.3699 164.893C98.3699 161.696 98.3699 158.611 98.3699 155.6C95.2094 155.6 92.1605 155.6 89.0372 155.6C89.0372 158.722 89.0372 161.771 89.0372 164.893C92.272 164.893 95.3581 164.893 98.3699 164.893ZM164.888 51.144C161.691 51.144 158.605 51.144 155.556 51.144C155.556 54.3037 155.556 57.3519 155.556 60.4744C158.679 60.4744 161.728 60.4744 164.888 60.4744C164.888 57.2776 164.888 54.1922 164.888 51.144ZM60.3699 164.893C60.3699 161.696 60.3699 158.611 60.3699 155.6C57.2094 155.6 54.1605 155.6 51.0372 155.6C51.0372 158.722 51.0372 161.771 51.0372 164.893C54.272 164.893 57.3581 164.893 60.3699 164.893ZM51.1116 51.144C51.1116 54.3409 51.1116 57.3891 51.1116 60.4744C54.272 60.4744 57.3209 60.4744 60.4442 60.4744C60.4442 57.3519 60.4442 54.3037 60.4442 51.144C57.2466 51.144 54.1605 51.144 51.1116 51.144Z" fill="#515564"/>
</svg>
