<svg width="20" height="20" viewBox="0 0 20 20" fill="none" xmlns="http://www.w3.org/2000/svg">
<path d="M8.67187 1.42857H7.38839C6.53808 1.42857 5.84821 2.11845 5.84821 2.96875V6.5625C5.84821 7.69518 6.76911 8.61607 7.90178 8.61607H12.0089C13.1416 8.61607 14.0625 7.69518 14.0625 6.5625V2.96875C14.0625 2.11845 13.3726 1.42857 12.5223 1.42857H11.2388V3.99554C11.2388 4.2779 11.0078 4.50893 10.7254 4.50893H9.18526C8.90289 4.50893 8.67187 4.2779 8.67187 3.99554V1.42857ZM2.76785 9.64286C1.63518 9.64286 0.714279 10.5638 0.714279 11.6964V15.8036C0.714279 16.9362 1.63518 17.8571 2.76785 17.8571H7.90178C9.03445 17.8571 9.95535 16.9362 9.95535 15.8036V11.6964C9.95535 10.5638 9.03445 9.64286 7.90178 9.64286H6.6183V12.2098C6.6183 12.4922 6.38727 12.7232 6.1049 12.7232H4.56473C4.28236 12.7232 4.05133 12.4922 4.05133 12.2098V9.64286H2.76785ZM12.0089 17.8571H17.1429C18.2755 17.8571 19.1964 16.9362 19.1964 15.8036V11.6964C19.1964 10.5638 18.2755 9.64286 17.1429 9.64286H15.8594V12.2098C15.8594 12.4922 15.6283 12.7232 15.346 12.7232H13.8058C13.5234 12.7232 13.2924 12.4922 13.2924 12.2098V9.64286H12.0089C11.5276 9.64286 11.0848 9.8065 10.7351 10.0857C10.8923 10.4194 10.9821 10.7916 10.9821 11.183V16.317C10.9821 16.7084 10.8923 17.0806 10.7351 17.4143C11.0848 17.6935 11.5276 17.8571 12.0089 17.8571Z" fill="#ABAAAA"/>
</svg>
