<svg width="20" height="20" viewBox="0 0 20 20" fill="none" xmlns="http://www.w3.org/2000/svg">
<path d="M12.4107 4.50893H8.30358L6.78265 2.22754C6.55483 1.88421 6.79869 1.42857 7.20941 1.42857H13.5049C13.9156 1.42857 14.1595 1.88421 13.9316 2.22754L12.4107 4.50893ZM8.30358 5.53572H12.4107C12.5326 5.61593 12.6706 5.70578 12.8278 5.80525C14.6472 6.97001 18.5714 9.47922 18.5714 14.7768C18.5714 16.4774 17.1917 17.8571 15.4911 17.8571H5.22322C3.5226 17.8571 2.14286 16.4774 2.14286 14.7768C2.14286 9.47922 6.06711 6.97001 7.88644 5.80525C8.04046 5.70578 8.18164 5.61593 8.30358 5.53572Z" fill="#ABAAAA"/>
</svg>
