<svg width="28" height="28" viewBox="0 0 28 28" fill="none" xmlns="http://www.w3.org/2000/svg">
<path d="M21.2617 20.5102C20.1395 18.5602 18.032 17.25 15.625 17.25H12.375C9.96797 17.25 7.86055 18.5602 6.73828 20.5102C8.52578 22.5008 11.1156 23.75 14 23.75C16.8844 23.75 19.4742 22.4957 21.2617 20.5102ZM1 14C1 10.5522 2.36964 7.24558 4.80761 4.80761C7.24558 2.36964 10.5522 1 14 1C17.4478 1 20.7544 2.36964 23.1924 4.80761C25.6304 7.24558 27 10.5522 27 14C27 17.4478 25.6304 20.7544 23.1924 23.1924C20.7544 25.6304 17.4478 27 14 27C10.5522 27 7.24558 25.6304 4.80761 23.1924C2.36964 20.7544 1 17.4478 1 14ZM14 14.8125C14.9697 14.8125 15.8997 14.4273 16.5854 13.7416C17.271 13.0559 17.6562 12.1259 17.6562 11.1562C17.6562 10.1866 17.271 9.25657 16.5854 8.57089C15.8997 7.88521 14.9697 7.5 14 7.5C13.0303 7.5 12.1003 7.88521 11.4146 8.57089C10.729 9.25657 10.3438 10.1866 10.3438 11.1562C10.3438 12.1259 10.729 13.0559 11.4146 13.7416C12.1003 14.4273 13.0303 14.8125 14 14.8125Z" fill="#515564"/>
</svg>
