<svg width="50" height="50" viewBox="0 0 50 50" fill="none" xmlns="http://www.w3.org/2000/svg">
<path d="M7.00893 12.9911C7.00893 11.9136 7.43694 10.8803 8.19881 10.1185C8.96067 9.35658 9.99399 8.92857 11.0714 8.92857C12.1489 8.92857 13.1822 9.35658 13.944 10.1185C14.7059 10.8803 15.1339 11.9136 15.1339 12.9911C15.1339 14.0685 14.7059 15.1018 13.944 15.8637C13.1822 16.6256 12.1489 17.0536 11.0714 17.0536C9.99399 17.0536 8.96067 16.6256 8.19881 15.8637C7.43694 15.1018 7.00893 14.0685 7.00893 12.9911ZM6.42857 24.4314C5.70312 25.2439 5.26786 26.3248 5.26786 27.5C5.26786 28.6752 5.70312 29.7561 6.42857 30.5686V24.4314ZM16.904 20.8549C14.7494 22.7628 13.3929 25.5558 13.3929 28.6607C13.3929 31.149 14.2634 33.4342 15.7143 35.226V36.7857C15.7143 38.0698 14.6769 39.1071 13.3929 39.1071H8.75C7.46596 39.1071 6.42857 38.0698 6.42857 36.7857V34.8415C3.68638 33.5357 1.78571 30.7427 1.78571 27.5C1.78571 23.0095 5.4202 19.375 9.91071 19.375H12.2321C13.9732 19.375 15.5837 19.9191 16.904 20.8477V20.8549ZM34.2857 36.7857V35.226C35.7366 33.4342 36.6071 31.149 36.6071 28.6607C36.6071 25.5558 35.2506 22.7628 33.096 20.8477C34.4163 19.9191 36.0268 19.375 37.7679 19.375H40.0893C44.5798 19.375 48.2143 23.0095 48.2143 27.5C48.2143 30.7427 46.3136 33.5357 43.5714 34.8415V36.7857C43.5714 38.0698 42.534 39.1071 41.25 39.1071H36.6071C35.3231 39.1071 34.2857 38.0698 34.2857 36.7857ZM34.8661 12.9911C34.8661 11.9136 35.2941 10.8803 36.0559 10.1185C36.8178 9.35658 37.8511 8.92857 38.9286 8.92857C40.006 8.92857 41.0393 9.35658 41.8012 10.1185C42.5631 10.8803 42.9911 11.9136 42.9911 12.9911C42.9911 14.0685 42.5631 15.1018 41.8012 15.8637C41.0393 16.6256 40.006 17.0536 38.9286 17.0536C37.8511 17.0536 36.8178 16.6256 36.0559 15.8637C35.2941 15.1018 34.8661 14.0685 34.8661 12.9911ZM43.5714 24.4314V30.5759C44.2969 29.7561 44.7321 28.6825 44.7321 27.5073C44.7321 26.332 44.2969 25.2511 43.5714 24.4386V24.4314ZM25 8.92857C26.2314 8.92857 27.4123 9.41773 28.283 10.2884C29.1537 11.1591 29.6429 12.3401 29.6429 13.5714C29.6429 14.8028 29.1537 15.9837 28.283 16.8544C27.4123 17.7251 26.2314 18.2143 25 18.2143C23.7686 18.2143 22.5877 17.7251 21.717 16.8544C20.8463 15.9837 20.3571 14.8028 20.3571 13.5714C20.3571 12.3401 20.8463 11.1591 21.717 10.2884C22.5877 9.41773 23.7686 8.92857 25 8.92857ZM19.1964 28.6607C19.1964 29.8359 19.6317 30.9096 20.3571 31.7294V25.5921C19.6317 26.4118 19.1964 27.4855 19.1964 28.6607ZM29.6429 25.5921V31.7366C30.3683 30.9169 30.8036 29.8432 30.8036 28.668C30.8036 27.4927 30.3683 26.4118 29.6429 25.5993V25.5921ZM34.2857 28.6607C34.2857 31.9035 32.385 34.6964 29.6429 36.0022V39.1071C29.6429 40.3912 28.6055 41.4286 27.3214 41.4286H22.6786C21.3945 41.4286 20.3571 40.3912 20.3571 39.1071V36.0022C17.615 34.6964 15.7143 31.9035 15.7143 28.6607C15.7143 24.1702 19.3488 20.5357 23.8393 20.5357H26.1607C30.6512 20.5357 34.2857 24.1702 34.2857 28.6607Z" fill="#21B692"/>
</svg>
