<svg width="50" height="50" viewBox="0 0 50 50" fill="none" xmlns="http://www.w3.org/2000/svg">
<path d="M11.2766 43.5612V43.5294C11.2288 37.7753 11.2448 31.9256 11.2766 26.2831V26.2671C11.2766 25.5339 11.452 24.7529 11.8026 23.9719C13.03 20.9434 14.2892 17.8034 15.644 14.7431C16.0584 13.8026 16.7438 13.0376 17.4611 12.4797V9.99316C17.4611 9.16432 17.0467 8.38329 16.3453 7.92106L11.1332 4.43036C10.2725 3.85655 9.1886 3.85655 8.32788 4.43036L3.11575 7.92106C2.41442 8.38329 2 9.16432 2 9.99316V45.9999H11.8345C11.4998 45.2986 11.3085 44.4698 11.2766 43.5612Z" fill="#21B692"/>
<path d="M36.2694 45.9681C36.2694 44.2307 36.3013 42.7324 36.2694 41.2342C36.2216 38.4289 34.6914 36.9306 31.918 36.9146C31.2645 36.9146 30.6269 36.9146 29.9734 36.9146C27.3594 36.9465 25.7973 38.4129 25.7017 41.0588C25.6539 42.6368 25.7017 44.2467 25.7017 45.9362C22.4819 45.9362 19.4535 46.0159 16.4091 45.9044C15.1339 45.8566 14.3051 44.8683 14.2892 43.5135C14.2413 37.7594 14.2573 32.0372 14.2892 26.2831C14.2892 25.9006 14.4167 25.5021 14.5761 25.1674C15.8193 22.0911 17.0626 18.9989 18.4174 15.9704C18.6725 15.3807 19.326 14.775 19.9157 14.4881C23.1514 12.8782 26.4189 11.3002 29.7343 9.88165C30.4675 9.56286 31.5673 9.56286 32.3005 9.88165C35.6159 11.3321 38.8834 12.8942 42.1191 14.52C42.8204 14.8866 43.4102 15.6357 43.7768 16.353C44.5578 17.8832 45.02 19.5887 45.8011 21.1188C47.4269 24.2748 47.921 27.5902 47.7775 31.1127C47.6181 35.0178 47.7457 38.9548 47.7297 42.8918C47.7297 45.1393 46.869 46 44.5737 46C41.8481 46 39.1544 45.9681 36.2694 45.9681ZM31.0413 22.649C30.5153 22.649 30.0053 22.649 29.4793 22.649C27.71 22.6809 27.0724 23.3025 26.9928 25.0399C26.9609 25.4224 26.9928 25.8209 26.9928 26.2034C26.9928 30.4273 27.0246 30.4752 31.2167 30.4752C34.787 30.4752 34.9783 30.268 34.9783 26.6657C34.9783 22.7924 34.8827 22.649 31.0413 22.649Z" fill="#21B692"/>
</svg>
