<svg width="50" height="50" viewBox="0 0 50 50" fill="none" xmlns="http://www.w3.org/2000/svg">
<path d="M25.0001 6.13881C14.5808 6.13881 6.13844 14.5812 6.13844 25.0004V28.6276C6.13844 29.8337 5.16816 30.804 3.96211 30.804C2.75605 30.804 1.78577 29.8337 1.78577 28.6276V25.0004C1.78577 12.1782 12.1778 1.78613 25.0001 1.78613C37.8223 1.78613 48.2143 12.1782 48.2143 25.0004V38.0675C48.2143 42.4746 44.6415 46.0474 40.2254 46.0474L30.2233 46.0384C29.4706 47.3351 28.0651 48.2147 26.4509 48.2147H23.5492C21.1461 48.2147 19.1965 46.2651 19.1965 43.862C19.1965 41.459 21.1461 39.5093 23.5492 39.5093H26.4509C28.0651 39.5093 29.4706 40.389 30.2233 41.6857L40.2344 41.6948C42.2385 41.6948 43.8617 40.0716 43.8617 38.0675V25.0004C43.8617 14.5812 35.4193 6.13881 25.0001 6.13881ZM14.8438 20.6477H16.2947C17.8997 20.6477 19.1965 21.9445 19.1965 23.5495V33.7058C19.1965 35.3108 17.8997 36.6076 16.2947 36.6076H14.8438C11.6428 36.6076 9.04023 34.005 9.04023 30.804V26.4513C9.04023 23.2503 11.6428 20.6477 14.8438 20.6477ZM35.1563 20.6477C38.3573 20.6477 40.9599 23.2503 40.9599 26.4513V30.804C40.9599 34.005 38.3573 36.6076 35.1563 36.6076H33.7054C32.1004 36.6076 30.8036 35.3108 30.8036 33.7058V23.5495C30.8036 21.9445 32.1004 20.6477 33.7054 20.6477H35.1563Z" fill="#21B692"/>
</svg>
