<svg width="20" height="20" viewBox="0 0 20 20" fill="none" xmlns="http://www.w3.org/2000/svg">
<path d="M5.9375 2.45536V3.48215H4.39733C3.54702 3.48215 2.85715 4.17202 2.85715 5.02232V6.5625H17.2321V5.02232C17.2321 4.17202 16.5423 3.48215 15.692 3.48215H14.1518V2.45536C14.1518 1.88742 13.6929 1.42857 13.125 1.42857C12.5571 1.42857 12.0982 1.88742 12.0982 2.45536V3.48215H7.99108V2.45536C7.99108 1.88742 7.53223 1.42857 6.96429 1.42857C6.39635 1.42857 5.9375 1.88742 5.9375 2.45536ZM17.2321 7.58929H2.85715V16.317C2.85715 17.1673 3.54702 17.8571 4.39733 17.8571H15.692C16.5423 17.8571 17.2321 17.1673 17.2321 16.317V7.58929Z" fill="#ABAAAA"/>
</svg>
