<svg width="50" height="50" viewBox="0 0 50 50" fill="none" xmlns="http://www.w3.org/2000/svg">
<path d="M15.2 29.4C11.7 29.4 8.8 32.3 8.8 35.8C8.8 41.4 13.8 48.9 15.2 48.9C16.6 48.9 21.6 41.7 21.6 35.8C21.6 32.3 18.7 29.4 15.2 29.4ZM15.2 38.7C13.6 38.7 12.4 37.4 12.4 35.9C12.4 34.4 13.7 33.1 15.2 33.1C16.8 33.1 18 34.4 18 35.9C18 37.4 16.7 38.7 15.2 38.7Z" fill="#21B692"/>
<path d="M44.4 17.4C43.8 18.6 43 19.7 42.3 20.6C42.6 21.8 42.9 23.1 42.9 24.4H36.9C36.9 23.5 36.8 22.5 36.7 21.6C35.8 20.7 34.9 19.4 34 17.9C34.5 19.9 34.8 22.1 34.8 24.4H25.8V18.4C28.6 18.3 31.3 18 33.7 17.5C33.4 16.9 33.1 16.3 32.8 15.6C30.6 16 28.2 16.3 25.8 16.4V7.6C26.7 7.6 27.6 7.7 28.4 7.9C29.5 8.7 30.4 9.9 31.3 11.3C31.1 10.3 30.9 9.3 30.9 8.4C30.9 7.4 31.1 6.5 31.4 5.6C29.6 4.9 27.3 4.5 25 4.5C13.4 4.5 4 13.9 4 25.5C4 29.7 5.2 33.5 7.3 36.8C7.3 36.5 7.3 36.2 7.3 35.9C7.3 34.5 7.7 33.2 8.3 32.1C7.6 30.4 7.2 28.5 7.1 26.6H13.1C13.1 27.2 13.1 27.8 13.2 28.3C13.8 28.1 14.5 28 15.2 28C15.2 27.5 15.1 27 15.1 26.6H24.1V32.6C23.6 32.6 23 32.6 22.5 32.7C22.8 33.3 23 34 23.1 34.7C23.4 34.7 23.8 34.7 24.1 34.7V43.6C23.2 43.6 22.3 43.5 21.5 43.3C21.1 44.3 20.6 45.2 20.1 46.1C21.7 46.5 23.4 46.7 25.2 46.7C36.8 46.7 46.2 37.3 46.2 25.7C46 22.6 45.4 19.9 44.4 17.4ZM21.4 7.9C22.3 7.7 23.1 7.6 24 7.6V16.5C21.4 16.4 18.8 16.1 16.5 15.6C17.7 12.2 19.4 9.4 21.4 7.9ZM13 24.5H7C7.2 21.2 8.2 18.1 10 15.5C11.2 16.1 12.5 16.6 14 17C13.4 19.3 13.1 21.8 13 24.5ZM14.5 15.1C13.3 14.8 12.2 14.4 11.2 13.9C12.9 11.9 14.9 10.3 17.3 9.2C16.2 10.9 15.3 12.9 14.5 15.1ZM15 24.5C15.1 22 15.4 19.7 15.9 17.5C18.4 18.1 21.1 18.4 23.9 18.4V24.4H15V24.5ZM35 26.5C34.9 29 34.6 31.3 34.1 33.5C31.6 32.9 28.9 32.6 26.1 32.6V26.6H35V26.5ZM28.6 43.1C27.7 43.3 26.9 43.4 26 43.4V34.5C28.6 34.6 31.2 34.9 33.5 35.4C32.3 38.8 30.6 41.6 28.6 43.1ZM32.7 41.8C33.8 40.2 34.8 38.2 35.5 35.9C36.7 36.2 37.8 36.6 38.8 37.1C37.1 39.1 35 40.7 32.7 41.8ZM40 35.5C38.8 34.9 37.5 34.4 36 34C36.6 31.7 36.9 29.2 37 26.5H43C42.8 29.8 41.7 32.9 40 35.5Z" fill="#21B692"/>
<path d="M39.1 2C35.6 2 32.7 4.9 32.7 8.4C32.7 14 37.7 21.5 39.1 21.5C40.5 21.5 45.5 14.3 45.5 8.4C45.5 4.9 42.6 2 39.1 2ZM39.1 11.2C37.5 11.2 36.3 9.9 36.3 8.4C36.3 6.8 37.6 5.6 39.1 5.6C40.7 5.6 41.9 6.9 41.9 8.4C41.9 10 40.6 11.2 39.1 11.2Z" fill="#21B692"/>
</svg>
