<svg width="20" height="21" viewBox="0 0 20 21" fill="none" xmlns="http://www.w3.org/2000/svg">
<path d="M19.6 10.4914V14.2125C19.6 14.936 19.3921 15.6251 18.9764 16.2281C18.578 16.8138 18.0236 17.2445 17.3827 17.5201C16.9496 17.6924 16.4819 17.7957 16.0142 17.7957H12.3592C10.3844 17.7957 8.77339 16.1936 8.77339 14.2297V2.94586C8.77339 2.37736 8.30568 1.92945 7.75136 1.92945C7.17971 1.92945 6.72933 2.39459 6.72933 2.94586C6.72933 2.94586 6.72933 8.73421 6.72933 8.82034C6.72933 9.06153 6.53878 9.25103 6.29626 9.25103C6.22697 9.25103 4.13094 9.25103 4.13094 9.25103L6.57342 11.2322C6.79862 11.4217 6.91987 11.6801 6.91987 11.9729V14.2814C6.91987 16.9171 9.0852 19.0706 11.7355 19.0706H12.7229C13.2599 19.0706 13.693 19.5012 13.693 20.0353C13.693 20.5693 13.2599 21 12.7229 21H11.7355C10.8348 21 9.95133 20.8277 9.11984 20.466C8.323 20.1214 7.59545 19.639 6.97184 19.0361C6.34823 18.4159 5.8632 17.7096 5.53407 16.8999C5.18762 16.073 4.99707 15.1944 4.99707 14.2986V12.4381L0.805003 9.02707C-0.476868 8.04512 0.0254869 7.32158 0.579809 7.32158C0.71839 7.32158 4.7892 7.32158 4.7892 7.32158V2.94586C4.7892 1.3265 6.12303 0 7.75136 0C9.37968 0 10.7135 1.3265 10.7135 2.94586V14.2125C10.7135 15.1255 11.4584 15.8663 12.3765 15.8663H16.0315C16.2567 15.8663 16.4646 15.8318 16.6552 15.7457C17.2788 15.4873 17.6772 14.8843 17.6772 14.2125V10.4914C17.6772 9.57834 16.9323 8.83757 16.0142 8.83757H13.1733C12.6363 8.83757 12.2033 8.40689 12.2033 7.87285V3.80722C12.2033 3.27317 12.6363 2.84249 13.1733 2.84249C13.7103 2.84249 14.1434 3.27317 14.1434 3.80722V6.90812H16.0315C17.989 6.92535 19.6 8.52748 19.6 10.4914Z" fill="#21B692"/>
</svg>
